<svg xmlns="http://www.w3.org/2000/svg" viewBox="0 0 400 398.36"><defs><style>.cls-1{fill:#ff6b61;}.cls-2{fill:#c63e6e;}.cls-3{fill:#f296a4;}.cls-4{fill:#45d6c8;}.cls-5{fill:#fcba58;}.cls-6{fill:#eae6c1;}.cls-7{fill:#f8b837;}</style></defs><title>molino</title><g id="Capa_2" data-name="Capa 2"><g id="BACKGROUND_1" data-name="BACKGROUND 1"><path class="cls-1" d="M377.33,0,248.11,1.66a61.85,61.85,0,0,0-43.29,18.47c-32.19,32.71-96.54,98.33-96,99.59.68,1.67,90.55,80.15,90.55,80.15Z"/><path class="cls-2" d="M226.65,67.14c14.45-45.53,96.17-58,146-66.24.31-.28.61-.56.88-.85L248.11,1.66a61.85,61.85,0,0,0-43.29,18.47c-32.19,32.71-96.54,98.33-96,99.59.68,1.67,90.55,80.15,90.55,80.15l34.14-38.34S212.24,112.56,226.65,67.14Z"/><path class="cls-3" d="M214.45,12.14a61,61,0,0,0-9.63,8c-32.19,32.71-96.54,98.33-96,99.59.68,1.67,90.55,80.15,90.55,80.15l12.87-14.45S195.4,83,214.45,12.14Z"/><path class="cls-1" d="M0,21.48,1.66,150.7A61.85,61.85,0,0,0,20.13,194c32.71,32.19,98.33,96.54,99.59,96,1.67-.68,80.15-90.55,80.15-90.55Z"/><path class="cls-2" d="M67.14,172.16C21.61,157.71,9.14,76,.9,26.11c-.28-.31-.56-.61-.85-.88L1.66,150.7A61.85,61.85,0,0,0,20.13,194c32.71,32.19,98.33,96.54,99.59,96,1.67-.68,80.15-90.55,80.15-90.55l-38.34-34.14S112.56,186.57,67.14,172.16Z"/><path class="cls-4" d="M12.14,184.36a61.45,61.45,0,0,0,8,9.63c32.71,32.19,98.33,96.54,99.59,96,1.67-.68,80.15-90.55,80.15-90.55l-14.45-12.87S83,203.41,12.14,184.36Z"/><path class="cls-1" d="M22.67,398.36l129.22-1.67a61.84,61.84,0,0,0,43.29-18.46c32.19-32.71,96.54-98.34,96-99.59-.68-1.67-90.55-80.15-90.55-80.15Z"/><path class="cls-2" d="M173.35,331.22c-14.45,45.53-96.17,58-146,66.23-.31.28-.61.57-.88.86l125.47-1.62a61.84,61.84,0,0,0,43.29-18.46c32.19-32.71,96.54-98.34,96-99.59-.68-1.67-90.55-80.15-90.55-80.15l-34.14,38.33S187.76,285.8,173.35,331.22Z"/><path class="cls-5" d="M185.55,386.22a61,61,0,0,0,9.63-8c32.19-32.71,96.54-98.34,96-99.59-.68-1.67-90.55-80.15-90.55-80.15L187.8,212.94S204.6,315.32,185.55,386.22Z"/><path class="cls-1" d="M400,376.88l-1.66-129.22a61.85,61.85,0,0,0-18.47-43.29c-32.71-32.19-98.33-96.54-99.59-96-1.67.68-80.15,90.55-80.15,90.55Z"/><path class="cls-2" d="M332.86,226.2c45.53,14.45,58,96.17,66.24,146.05.28.31.56.61.85.88l-1.61-125.47a61.85,61.85,0,0,0-18.47-43.29c-32.71-32.19-98.33-96.54-99.59-96-1.67.68-80.15,90.55-80.15,90.55L238.47,233S287.44,211.79,332.86,226.2Z"/><path class="cls-4" d="M387.86,214a61,61,0,0,0-8-9.63c-32.71-32.19-98.33-96.54-99.59-96-1.67.68-80.15,90.55-80.15,90.55l14.45,12.87S317,195,387.86,214Z"/><circle class="cls-6" cx="199.33" cy="199.87" r="21.24" transform="translate(-42.1 346.13) rotate(-76.28)"/><path class="cls-7" d="M193.57,200.22a5.77,5.77,0,1,1,6.11,5.41A5.77,5.77,0,0,1,193.57,200.22Z"/></g></g></svg>